<svg width="27" height="27" xmlns="http://www.w3.org/2000/svg" xmlns:xlink="http://www.w3.org/1999/xlink" xmlns:svgjs="http://svgjs.com/svgjs" fill="#a4a4a4"><svg xmlns="http://www.w3.org/2000/svg" width="27" height="27" viewBox="0.249 0.38 26.518 26.518"><path paint-order="stroke fill markers" fill-rule="evenodd" d="M13.508.38c-3.6 0-4.052.015-5.466.08C3.232.68.55 3.352.33 8.172.264 9.588.249 10.038.249 13.64c0 3.601.015 4.053.08 5.468.22 4.814 2.892 7.49 7.712 7.712 1.415.064 1.866.08 5.467.08 3.601 0 4.053-.016 5.467-.08 4.81-.222 7.494-2.893 7.711-7.712.065-1.415.081-1.867.081-5.468s-.016-4.051-.08-5.466c-.22-4.81-2.891-7.492-7.71-7.712-1.416-.066-1.868-.08-5.469-.08zm0 2.39c3.536 0 3.96.013 5.359.077 3.593.163 5.272 1.869 5.435 5.435.064 1.398.076 1.818.076 5.358 0 3.54-.013 3.96-.076 5.358-.165 3.563-1.839 5.271-5.435 5.435-1.399.065-1.817.077-5.359.077-3.543 0-3.96-.012-5.358-.077-3.602-.164-5.271-1.879-5.435-5.436-.064-1.398-.077-1.817-.077-5.358 0-3.541.014-3.959.077-5.358C2.88 4.716 4.558 3.01 8.15 2.846c1.399-.063 1.822-.076 5.358-.076zm0 4.06a6.81 6.81 0 1 0 6.809 6.811v-.002a6.809 6.809 0 0 0-6.809-6.808zm0 11.229a4.42 4.42 0 1 1 0-8.839 4.42 4.42 0 0 1 0 8.839zM20.586 4.97a1.591 1.591 0 1 0 1.59 1.592c0-.879-.712-1.59-1.59-1.592z"/></svg></svg>