<svg width="38" height="27" xmlns="http://www.w3.org/2000/svg" xmlns:xlink="http://www.w3.org/1999/xlink" xmlns:svgjs="http://svgjs.com/svgjs" viewBox="0.237 0 37.525 27" fill="#a4a4a4"><svg xmlns="http://www.w3.org/2000/svg" width="38" height="27" viewBox="0.705 0.01 36.63 26.356"><path paint-order="stroke fill markers" fill-rule="evenodd" d="M.705 22.394V3.975c.014-.065.033-.13.043-.197.121-.818.43-1.558.97-2.187C2.615.544 3.745.01 5.144.01c9.256.009 18.51.004 27.766.005.15 0 .303-.016.447.013.397.08.812.125 1.182.279 1.796.744 2.794 2.274 2.794 4.22 0 5.78-.002 11.56 0 17.339.001.605-.1 1.188-.32 1.751-.615 1.573-2.254 2.756-4.085 2.748-5.778-.028-11.557-.01-17.335-.01-3.504 0-7.008-.025-10.512.01-1.952.02-3.864-1.416-4.284-3.493l-.093-.478zM4.487 2.26l-.035.076c.136.166.262.34.407.497 4.208 4.561 8.42 9.12 12.627 13.68.898.974 2.162.978 3.064 0l9.272-10.04c1.16-1.258 2.32-2.515 3.478-3.775.106-.115.19-.25.284-.375l-.032-.061c-.214-.017-.427-.05-.641-.05-5.486-.002-10.972-.002-16.457-.002-3.776 0-7.55 0-11.325.002-.214 0-.428.031-.642.048zm28.79 21.878l.025-.052c-3.065-2.734-6.13-5.467-9.205-8.207l-.2.212c-.651.702-1.29 1.415-1.954 2.105-1.62 1.686-4.21 1.687-5.84.01-.416-.43-.813-.875-1.22-1.313l-.94-1.016-9.208 8.21.03.05h28.513zM2.909 3.929c-.016.14-.036.246-.04.353-.005.272-.006.544-.006.815v13.301c0 1.23-.001 2.458.011 3.687.002.214.07.429.108.652l9.481-8.461L2.908 3.929zm32.233-.013l-9.564 10.36c3.163 2.823 6.31 5.63 9.466 8.448.032-.123.083-.24.089-.359.022-.46.04-.921.04-1.382.003-5.48.002-10.959 0-16.438 0-.194-.018-.389-.03-.629z"/></svg></svg>