<svg width="28" height="27" xmlns="http://www.w3.org/2000/svg" xmlns:xlink="http://www.w3.org/1999/xlink" xmlns:svgjs="http://svgjs.com/svgjs" viewBox="0.5 0 27 27" fill="#a4a4a4"><svg xmlns="http://www.w3.org/2000/svg" width="28" height="27" viewBox="0.866 0.38 26.518 26.518"><path paint-order="stroke fill markers" fill-rule="evenodd" d="M25.92.38H2.33C1.52.38.865 1.036.865 1.844v23.591c0 .808.655 1.463 1.463 1.463h12.702V16.63h-3.457v-4.003h3.457V9.676c0-3.425 2.091-5.291 5.147-5.291 1.034-.003 2.066.05 3.094.158v3.58h-2.125c-1.657 0-1.988.79-1.988 1.948v2.556h3.963l-.516 4.003h-3.447v10.268h6.757a1.463 1.463 0 0 0 1.468-1.458v-.006-23.59c0-.808-.656-1.464-1.465-1.464z"/></svg></svg>