<svg width="28" height="28" xmlns="http://www.w3.org/2000/svg" xmlns:xlink="http://www.w3.org/1999/xlink" xmlns:svgjs="http://svgjs.com/svgjs" viewBox="0.002 0 27.997 28" fill="#a4a4a4"><svg xmlns="http://www.w3.org/2000/svg" width="28" height="28" viewBox="0.433 0.645 26.718 26.72"><path paint-order="stroke fill markers" fill-rule="evenodd" d="M27.15 14.034v11.221c0 1.314-.79 2.108-2.107 2.109-7.5.002-15 .002-22.5 0-1.32-.001-2.11-.794-2.11-2.107V2.784c0-1.358.78-2.139 2.137-2.139h22.441c1.36 0 2.139.78 2.14 2.137v11.252zm-12.272-1.501l-.076-.027c0-.422-.013-.843.005-1.263.01-.233-.059-.305-.296-.303-1.138.013-2.276.016-3.413-.001-.28-.004-.34.083-.34.35.009 3.798.006 7.598.006 11.398 0 .04.003.078 0 .118-.015.147.039.214.198.214 1.217-.005 2.434-.005 3.651-.001.14 0 .2-.053.19-.194-.007-.089-.002-.178-.001-.266.005-2.197.01-4.393.017-6.59.002-.669.3-1.203.792-1.63.997-.862 2.838-.668 3.243.865.133.504.19 1.009.19 1.525.003 1.999.006 3.998-.004 5.996 0 .236.066.3.3.297a155.39 155.39 0 0 1 3.442.001c.256.003.309-.08.308-.318-.009-2.158-.003-4.315-.007-6.473-.001-.822-.084-1.635-.318-2.432-.804-2.74-4.065-4.024-6.533-2.572-.558.329-.985.784-1.354 1.306zm-6.345 4.473c0-1.928-.004-3.856.005-5.785 0-.224-.062-.283-.283-.28-1.157.01-2.313.012-3.47 0-.24-.004-.294.07-.294.299.006 3.827.007 7.654 0 11.48 0 .236.064.3.298.299 1.147-.012 2.294-.014 3.44 0 .254.003.31-.076.309-.318-.01-1.898-.005-3.796-.005-5.695zM6.55 9.298c1.12.001 2.01-.67 2.204-1.657.274-1.408-.835-2.602-2.326-2.504-1.156.076-1.952.699-2.132 1.67-.258 1.386.74 2.49 2.254 2.491z"/></svg></svg>