<svg width="295" height="48" xmlns="http://www.w3.org/2000/svg" xmlns:xlink="http://www.w3.org/1999/xlink" xmlns:svgjs="http://svgjs.com/svgjs" viewBox="174 81 295 48"><svg width="122" height="48" xmlns="http://www.w3.org/2000/svg" xmlns:xlink="http://www.w3.org/1999/xlink" xmlns:svgjs="http://svgjs.com/svgjs" viewBox="0 0.023 122 47.954" fill="#303b42" x="174" y="81"><svg xmlns="http://www.w3.org/2000/svg" xmlns:xlink="http://www.w3.org/1999/xlink" width="122" height="48" viewBox="0.621 0.292 120.631 47.415"><path paint-order="stroke fill markers" fill-rule="evenodd" d="M97.15 47.707c-.338 0-.565-.007-.662-.012-12.91-.01-19.2-5.414-24.097-9.952-5.324-4.924-7.568-9.824-7.662-10.032l-.9-1.996 51.345.011C104.857 14.26 92.862 8.741 84.378 6.111c-9.83-3.045-17.214-2.997-17.286-2.99-19.27 0-35.605 7.158-48.563 21.265C8.819 34.962 3.82 47.416 3.777 47.522H.621c.17-.454 5.694-13.99 15.75-24.968 5.913-6.458 12.67-11.607 20.076-15.301C45.71 2.635 56.013.293 67.072.293c.295-.007 7.805-.073 18.036 3.08 9.438 2.907 23.037 9.24 34.242 22.872l1.903 2.314-52.832-.013a34.751 34.751 0 0 0 5.98 7.202c6.583 6.05 12.523 9.116 22.118 9.116h.066c.112.008 12.996.802 20.83-8.918h3.838c-8.525 12.046-21.377 11.761-24.103 11.761z"/></svg></svg><svg width="160" height="36" xmlns="http://www.w3.org/2000/svg" xmlns:xlink="http://www.w3.org/1999/xlink" xmlns:svgjs="http://svgjs.com/svgjs" viewBox="309 87 160 36" x="309" y="87"><svg width="160" height="15" xmlns="http://www.w3.org/2000/svg" xmlns:xlink="http://www.w3.org/1999/xlink" xmlns:svgjs="http://svgjs.com/svgjs" viewBox="309 87 160 15" x="309" y="87"><svg width="10" height="13" xmlns="http://www.w3.org/2000/svg" xmlns:xlink="http://www.w3.org/1999/xlink" xmlns:svgjs="http://svgjs.com/svgjs" viewBox="433 88 10 13" x="433" y="88"><svg width="10" height="13" xmlns="http://www.w3.org/2000/svg" xmlns:xlink="http://www.w3.org/1999/xlink" xmlns:svgjs="http://svgjs.com/svgjs" viewBox="0.411 0 9.178 13" fill="#303b42" x="433" y="88"><svg xmlns="http://www.w3.org/2000/svg" xmlns:xlink="http://www.w3.org/1999/xlink" width="10" height="13" viewBox="0.753 0.3 8.963 12.694"><path paint-order="stroke fill markers" fill-rule="evenodd" d="M9.716 12.994L2.755 5.458v7.511H.753V.3l6.958 7.955V.3h2.005v12.694z"/></svg></svg></svg><svg width="11" height="13" xmlns="http://www.w3.org/2000/svg" xmlns:xlink="http://www.w3.org/1999/xlink" xmlns:svgjs="http://svgjs.com/svgjs" viewBox="0.48 0 10.039 13" fill="#303b42" x="309" y="88"><svg xmlns="http://www.w3.org/2000/svg" xmlns:xlink="http://www.w3.org/1999/xlink" width="11" height="13" viewBox="0.263 0.251 9.821 12.718"><path paint-order="stroke fill markers" fill-rule="evenodd" d="M7.334 12.97L2.997 7.965h-.48v5.003H.285L.263.251h3.504c.792 0 1.496.09 2.106.272.612.181 1.12.43 1.524.75.445.375.773.814.989 1.312.214.501.32 1.038.32 1.608.017.639-.119 1.203-.403 1.687a4.303 4.303 0 0 1-1.076 1.233c-.151.109-.36.223-.622.341a5.55 5.55 0 0 1-1.064.324c.332.417.704.85 1.114 1.304.41.452.818.906 1.222 1.365.4.46.799.905 1.187 1.335.388.43.729.826 1.02 1.187h-2.75zM4.351 6.193c.722 0 1.253-.167 1.594-.5.341-.336.527-.799.555-1.398-.015-.43-.081-.788-.208-1.072a1.545 1.545 0 0 0-.533-.669 2.177 2.177 0 0 0-.843-.334 7.636 7.636 0 0 0-1.149-.114h-1.25v4.087h1.834z"/></svg></svg><svg width="13" height="13" xmlns="http://www.w3.org/2000/svg" xmlns:xlink="http://www.w3.org/1999/xlink" xmlns:svgjs="http://svgjs.com/svgjs" viewBox="0.238 0 12.523 13" fill="#303b42" x="318" y="88"><svg xmlns="http://www.w3.org/2000/svg" xmlns:xlink="http://www.w3.org/1999/xlink" width="13" height="13" viewBox="0.502 0.203 12.299 12.767"><path paint-order="stroke fill markers" fill-rule="evenodd" d="M10.446 12.97l-1.48-3.442H4.293c-.233.544-.48 1.125-.738 1.742a92.285 92.285 0 0 1-.72 1.7H.502L6.63.202l6.172 12.766h-2.355zM8.218 7.673c-.155-.375-1.406-2.804-1.589-3.277-.249.627-1.306 2.554-1.584 3.277h3.173z"/></svg></svg><svg width="14" height="13" xmlns="http://www.w3.org/2000/svg" xmlns:xlink="http://www.w3.org/1999/xlink" xmlns:svgjs="http://svgjs.com/svgjs" viewBox="0.738 0 12.523 13" fill="#303b42" x="419" y="88"><svg xmlns="http://www.w3.org/2000/svg" xmlns:xlink="http://www.w3.org/1999/xlink" width="14" height="13" viewBox="0.915 0.228 12.299 12.767"><path paint-order="stroke fill markers" fill-rule="evenodd" d="M10.859 12.994l-1.48-3.44H4.705a106.09 106.09 0 0 0-.74 1.741c-.258.619-.498 1.185-.718 1.7H.915L7.045.227l6.168 12.766H10.86zM8.627 7.698c-.152-.374-1.405-2.802-1.582-3.277-.252.625-1.31 2.555-1.588 3.277h3.17z"/></svg></svg><svg width="13" height="14" xmlns="http://www.w3.org/2000/svg" xmlns:xlink="http://www.w3.org/1999/xlink" xmlns:svgjs="http://svgjs.com/svgjs" viewBox="0 0.404 13 13.192" fill="#303b42" x="331" y="88"><svg xmlns="http://www.w3.org/2000/svg" xmlns:xlink="http://www.w3.org/1999/xlink" width="13" height="14" viewBox="0.117 0.202 12.636 12.823"><path paint-order="stroke fill markers" fill-rule="evenodd" d="M10.73.215L6.433 9.083v-.01L2.14.202.117 12.97h2.061l.773-6.631 3.482 6.675v.012L9.915 6.35l.773 6.633h2.065L10.73.215z"/></svg></svg><svg width="14" height="14" xmlns="http://www.w3.org/2000/svg" xmlns:xlink="http://www.w3.org/1999/xlink" xmlns:svgjs="http://svgjs.com/svgjs" viewBox="0 0.197 14 13.606" fill="#303b42" x="345" y="88"><svg xmlns="http://www.w3.org/2000/svg" xmlns:xlink="http://www.w3.org/1999/xlink" width="14" height="14" viewBox="0.123 0.043 13.536 13.155"><path paint-order="stroke fill markers" fill-rule="evenodd" d="M6.882 13.199c-1.001 0-1.91-.171-2.734-.512a6.133 6.133 0 0 1-2.106-1.427h.022A6.474 6.474 0 0 1 .637 9.144 6.763 6.763 0 0 1 .123 6.63c0-.903.17-1.747.502-2.532a6.712 6.712 0 0 1 1.44-2.117h-.023A6.183 6.183 0 0 1 4.148.553c.824-.34 1.733-.51 2.734-.51 1 0 1.906.17 2.72.51.811.34 1.519.818 2.116 1.428.6.627 1.07 1.333 1.417 2.117.347.785.524 1.63.524 2.532a6.33 6.33 0 0 1-.514 2.526 6.823 6.823 0 0 1-1.405 2.104 6.317 6.317 0 0 1-2.128 1.427c-.821.34-1.73.512-2.73.512zM2.355 6.63c0 .654.11 1.267.335 1.836a4.477 4.477 0 0 0 2.376 2.502 4.38 4.38 0 0 0 1.816.375c.653 0 1.256-.125 1.814-.375a4.473 4.473 0 0 0 2.375-2.502 4.97 4.97 0 0 0 .335-1.836c0-.653-.111-1.266-.335-1.844a4.458 4.458 0 0 0-.938-1.5 4.552 4.552 0 0 0-1.437-1.011 4.36 4.36 0 0 0-1.814-.376c-.654 0-1.26.124-1.816.376A4.462 4.462 0 0 0 2.69 4.786a5.034 5.034 0 0 0-.335 1.844z"/></svg></svg><svg width="10" height="13" xmlns="http://www.w3.org/2000/svg" xmlns:xlink="http://www.w3.org/1999/xlink" xmlns:svgjs="http://svgjs.com/svgjs" viewBox="0.568 0 8.865 13" fill="#303b42" x="366" y="88"><svg xmlns="http://www.w3.org/2000/svg" xmlns:xlink="http://www.w3.org/1999/xlink" width="10" height="13" viewBox="0.809 0.251 8.672 12.718"><path paint-order="stroke fill markers" fill-rule="evenodd" d="M9.481 12.97H.832L.809.25h8.214v1.856H3.06v3.17h4.9v1.854h-4.9v3.982H9.48v1.856z"/></svg></svg><svg width="10" height="15" xmlns="http://www.w3.org/2000/svg" xmlns:xlink="http://www.w3.org/1999/xlink" xmlns:svgjs="http://svgjs.com/svgjs" viewBox="0 0.053 10 14.895" fill="#303b42" x="376" y="87"><svg xmlns="http://www.w3.org/2000/svg" xmlns:xlink="http://www.w3.org/1999/xlink" width="10" height="15" viewBox="0.838 0.919 8.902 13.26"><path paint-order="stroke fill markers" fill-rule="evenodd" d="M5.32 14.178a4.29 4.29 0 0 1-1.448-.24 4.695 4.695 0 0 1-1.25-.668 5.132 5.132 0 0 1-1.023-1.01c-.3-.389-.552-.806-.76-1.25L2.4 9.717c.099.239.257.505.471.804.215.298.455.584.72.855.262.27.543.496.843.677.296.182.597.27.886.27.459 0 .832-.059 1.115-.178.287-.117.515-.265.679-.447.164-.18.278-.365.332-.553.056-.187.085-.358.085-.51 0-.153-.02-.324-.054-.511-.031-.187-.126-.39-.281-.605a2.991 2.991 0 0 0-.697-.657c-.313-.223-.746-.444-1.304-.667-.806-.334-1.465-.648-1.98-.948-.514-.3-.922-.596-1.22-.896-.297-.299-.506-.605-.626-.919a2.837 2.837 0 0 1-.177-1.01c0-.376.073-.772.217-1.189.149-.417.383-.795.71-1.136.327-.34.759-.622 1.292-.845.537-.222 1.2-.332 1.992-.332 1.07 0 1.954.26 2.648.78.695.523 1.231 1.256 1.607 2.2l-1.9.604c-.43-1.097-1.215-1.647-2.355-1.647-.625 0-1.089.119-1.395.356a1.126 1.126 0 0 0-.461.939c0 .235.082.446.24.635.16.187.378.367.656.54.278.176.604.341.972.502.367.16.768.329 1.2.511.72.32 1.292.654 1.708 1 .417.349.729.703.937 1.064.208.361.342.717.398 1.063.053.348.083.674.083.98 0 .321-.07.696-.208 1.127-.14.43-.376.84-.708 1.23-.335.39-.786.715-1.357.979-.572.264-1.285.396-2.148.396z"/></svg></svg><svg width="10" height="13" xmlns="http://www.w3.org/2000/svg" xmlns:xlink="http://www.w3.org/1999/xlink" xmlns:svgjs="http://svgjs.com/svgjs" viewBox="0.353 0 9.293 13" fill="#303b42" x="386" y="88"><svg xmlns="http://www.w3.org/2000/svg" xmlns:xlink="http://www.w3.org/1999/xlink" width="10" height="13" viewBox="0.406 0.251 9.092 12.718"><path paint-order="stroke fill markers" fill-rule="evenodd" d="M9.498 2.107H6.14V12.97H3.911V2.107H.406V.251h9.092v1.856z"/></svg></svg><svg width="10" height="14" xmlns="http://www.w3.org/2000/svg" xmlns:xlink="http://www.w3.org/1999/xlink" xmlns:svgjs="http://svgjs.com/svgjs" viewBox="0 0.38 10 13.239" fill="#303b42" x="397" y="88"><svg xmlns="http://www.w3.org/2000/svg" xmlns:xlink="http://www.w3.org/1999/xlink" width="10" height="14" viewBox="0.02 0.251 9.78 12.947"><path paint-order="stroke fill markers" fill-rule="evenodd" d="M9.8.251V8.8c0 .736-.119 1.382-.345 1.94a3.573 3.573 0 0 1-.979 1.374 4.231 4.231 0 0 1-1.525.815 6.73 6.73 0 0 1-1.97.27c-.707 0-1.363-.09-1.97-.27a4.38 4.38 0 0 1-1.562-.815A3.82 3.82 0 0 1 .407 10.74C.15 10.182.02 9.536.02 8.8V.25h2.272v8.633c0 .402.078.756.23 1.064.152.305.354.563.603.769.253.209.537.367.855.469.32.104.655.157 1.002.157.346 0 .678-.048.99-.146.313-.098.585-.243.812-.437.23-.195.41-.448.546-.761.13-.312.195-.685.195-1.115V.25H9.8z"/></svg></svg><svg width="11" height="13" xmlns="http://www.w3.org/2000/svg" xmlns:xlink="http://www.w3.org/1999/xlink" xmlns:svgjs="http://svgjs.com/svgjs" viewBox="0.172 0 10.655 13" fill="#303b42" x="409" y="88"><svg xmlns="http://www.w3.org/2000/svg" xmlns:xlink="http://www.w3.org/1999/xlink" width="11" height="13" viewBox="0.071 0.251 10.424 12.718"><path paint-order="stroke fill markers" fill-rule="evenodd" d="M3.906.251c.793 0 1.582.125 2.369.377.786.25 1.49.63 2.114 1.147.625.512 1.133 1.17 1.522 1.969.388.798.584 1.75.584 2.846 0 1.099-.196 2.05-.594 2.857-.395.806-.911 1.469-1.553 1.99a6.337 6.337 0 0 1-2.168 1.157c-.808.25-1.62.375-2.44.375H.09L.07.251h3.835zM3.74 11.113a5.07 5.07 0 0 0 1.824-.312 4.144 4.144 0 0 0 1.43-.897c.4-.388.717-.865.938-1.428a5.105 5.105 0 0 0 .334-1.886c0-.694-.113-1.321-.334-1.875a3.905 3.905 0 0 0-.938-1.408 4.226 4.226 0 0 0-1.43-.887 5.11 5.11 0 0 0-1.824-.313H2.3v9.006h1.44z"/></svg></svg><svg width="10" height="13" xmlns="http://www.w3.org/2000/svg" xmlns:xlink="http://www.w3.org/1999/xlink" xmlns:svgjs="http://svgjs.com/svgjs" viewBox="0.353 0 9.293 13" fill="#303b42" x="445" y="88"><svg xmlns="http://www.w3.org/2000/svg" xmlns:xlink="http://www.w3.org/1999/xlink" width="10" height="13" viewBox="0.077 0.251 9.092 12.718"><path paint-order="stroke fill markers" fill-rule="evenodd" d="M9.168 2.107H5.813V12.97H3.581V2.107H.077V.251h9.091v1.856z"/></svg></svg><svg width="3" height="13" xmlns="http://www.w3.org/2000/svg" xmlns:xlink="http://www.w3.org/1999/xlink" xmlns:svgjs="http://svgjs.com/svgjs" viewBox="0.35 0 2.3 13" fill="#303b42" x="455" y="88"><svg xmlns="http://www.w3.org/2000/svg" xmlns:xlink="http://www.w3.org/1999/xlink" width="3" height="13" viewBox="0.731 0.251 2.25 12.718"><path paint-order="stroke fill markers" fill-rule="evenodd" d="M2.98 12.97H.753L.73.25h2.25V12.97z"/></svg></svg><svg width="10" height="13" xmlns="http://www.w3.org/2000/svg" xmlns:xlink="http://www.w3.org/1999/xlink" xmlns:svgjs="http://svgjs.com/svgjs" viewBox="0.62 0 8.76 13" fill="#303b42" x="459" y="88"><svg xmlns="http://www.w3.org/2000/svg" xmlns:xlink="http://www.w3.org/1999/xlink" width="10" height="13" viewBox="0.651 0.251 8.57 12.718"><path paint-order="stroke fill markers" fill-rule="evenodd" d="M9.221 12.97H.671L.65.25h2.232v10.862h6.338v1.856z"/></svg></svg></svg><svg width="74" height="14" xmlns="http://www.w3.org/2000/svg" xmlns:xlink="http://www.w3.org/1999/xlink" xmlns:svgjs="http://svgjs.com/svgjs" viewBox="309 109 74 14" x="309" y="109"><svg width="10" height="13" xmlns="http://www.w3.org/2000/svg" xmlns:xlink="http://www.w3.org/1999/xlink" xmlns:svgjs="http://svgjs.com/svgjs" viewBox="362 109 10 13" x="362" y="109"><svg width="10" height="13" xmlns="http://www.w3.org/2000/svg" xmlns:xlink="http://www.w3.org/1999/xlink" xmlns:svgjs="http://svgjs.com/svgjs" viewBox="0.409 0 9.182 13" fill="#303b42" x="362" y="109"><svg xmlns="http://www.w3.org/2000/svg" xmlns:xlink="http://www.w3.org/1999/xlink" width="10" height="13" viewBox="0.181 0.083 8.965 12.693"><path paint-order="stroke fill markers" fill-rule="evenodd" d="M9.146 12.776l-6.96-7.535v7.512H.18V.083l6.96 7.955V.083h2.005v12.693z"/></svg></svg></svg><svg width="11" height="14" xmlns="http://www.w3.org/2000/svg" xmlns:xlink="http://www.w3.org/1999/xlink" xmlns:svgjs="http://svgjs.com/svgjs" viewBox="0.213 0 10.575 14" fill="#303b42" x="349" y="109"><svg xmlns="http://www.w3.org/2000/svg" xmlns:xlink="http://www.w3.org/1999/xlink" width="11" height="14" viewBox="0.544 0.134 9.78 12.947"><path paint-order="stroke fill markers" fill-rule="evenodd" d="M10.324.134v8.548c0 .737-.114 1.383-.344 1.94a3.573 3.573 0 0 1-.979 1.375 4.26 4.26 0 0 1-1.525.814c-.59.18-1.246.27-1.969.27-.71 0-1.368-.09-1.97-.27a4.42 4.42 0 0 1-1.563-.814A3.854 3.854 0 0 1 .93 10.622C.674 10.065.544 9.42.544 8.682V.134h2.27v8.632c0 .402.08.758.233 1.064.152.305.354.563.604.77.252.208.536.367.855.468.322.105.654.157 1.001.157.347 0 .679-.048.991-.145.313-.098.584-.244.811-.437.231-.196.41-.448.544-.762.132-.312.199-.685.199-1.115V.134h2.272z"/></svg></svg><svg width="9" height="13" xmlns="http://www.w3.org/2000/svg" xmlns:xlink="http://www.w3.org/1999/xlink" xmlns:svgjs="http://svgjs.com/svgjs" viewBox="0.036 0 8.928 13" fill="#303b42" x="374" y="109"><svg xmlns="http://www.w3.org/2000/svg" xmlns:xlink="http://www.w3.org/1999/xlink" width="9" height="13" viewBox="0.252 0.134 8.735 12.719"><path paint-order="stroke fill markers" fill-rule="evenodd" d="M8.361 3.49c0 .67-.114 1.184-.344 1.554a2.86 2.86 0 0 1-.887.907c.237.111.467.25.691.417.222.168.42.37.594.616.174.242.313.527.417.854.105.326.155.705.155 1.138 0 .79-.152 1.437-.455 1.938-.309.5-.7.892-1.18 1.176a4.793 4.793 0 0 1-1.573.594 8.436 8.436 0 0 1-1.628.169H.27L.25.133h3.733c.583 0 1.139.064 1.669.188.527.126.991.32 1.396.584.403.264.722.613.96 1.042.235.431.352.947.352 1.543zM2.503 5.16h1.294c.318 0 .618-.033.906-.095.287-.063.534-.158.742-.292.208-.131.375-.301.498-.51.124-.21.187-.466.187-.773 0-.305-.063-.555-.196-.75a1.417 1.417 0 0 0-.501-.458c-.2-.112-.43-.188-.686-.23a4.923 4.923 0 0 0-.763-.062H2.503v3.17zm1.521 5.836c1.822 0 2.734-.701 2.734-2.105 0-.333-.07-.618-.209-.854a1.916 1.916 0 0 0-.524-.584 2.022 2.022 0 0 0-.697-.334 2.706 2.706 0 0 0-.72-.105H2.503v3.982h1.521z"/></svg></svg><svg width="3" height="13" xmlns="http://www.w3.org/2000/svg" xmlns:xlink="http://www.w3.org/1999/xlink" xmlns:svgjs="http://svgjs.com/svgjs" viewBox="0.35 0 2.301 13" fill="#303b42" x="309" y="109"><svg xmlns="http://www.w3.org/2000/svg" xmlns:xlink="http://www.w3.org/1999/xlink" width="3" height="13" viewBox="0.263 0.12 2.251 12.718"><path paint-order="stroke fill markers" fill-rule="evenodd" d="M2.514 12.839H.285L.263.12h2.25V12.84z"/></svg></svg><svg width="10" height="13" xmlns="http://www.w3.org/2000/svg" xmlns:xlink="http://www.w3.org/1999/xlink" xmlns:svgjs="http://svgjs.com/svgjs" viewBox="0.568 0 8.864 13" fill="#303b42" x="333" y="109"><svg xmlns="http://www.w3.org/2000/svg" xmlns:xlink="http://www.w3.org/1999/xlink" width="10" height="13" viewBox="0.34 0.02 8.672 12.718"><path paint-order="stroke fill markers" fill-rule="evenodd" d="M9.012 12.739H.362L.34.02h8.214v1.856H2.591v3.17h4.9V6.9h-4.9v3.981h6.42v1.858z"/></svg></svg><svg width="9" height="13" xmlns="http://www.w3.org/2000/svg" xmlns:xlink="http://www.w3.org/1999/xlink" xmlns:svgjs="http://svgjs.com/svgjs" viewBox="0.068 0 8.864 13" fill="#303b42" x="323" y="109"><svg xmlns="http://www.w3.org/2000/svg" xmlns:xlink="http://www.w3.org/1999/xlink" width="9" height="13" viewBox="0.318 0.02 8.671 12.718"><path paint-order="stroke fill markers" fill-rule="evenodd" d="M8.989 12.739H.339L.319.02H8.53v1.856H2.568v3.17h4.9V6.9h-4.9v3.981H8.99v1.858z"/></svg></svg><svg width="9" height="13" xmlns="http://www.w3.org/2000/svg" xmlns:xlink="http://www.w3.org/1999/xlink" xmlns:svgjs="http://svgjs.com/svgjs" viewBox="0.068 0 8.863 13" fill="#303b42" x="313" y="109"><svg xmlns="http://www.w3.org/2000/svg" width="9" height="13" viewBox="0.323 0.02 8.671 12.718"><path paint-order="stroke fill markers" fill-rule="evenodd" d="M8.994 12.739H.345L.323.02h8.214v1.856H2.574v3.17h4.899V6.9h-4.9v3.981h6.421v1.858z"/></svg></svg></svg></svg></svg>